<svg width="140" height="16" viewBox="0 0 140 16" fill="none" xmlns="http://www.w3.org/2000/svg">
<rect width="140" height="16" fill="#2C2C2C"/>
<path d="M140 5.99786V11.4958L135 16H128.5L140 5.99786Z" fill="black"/>
<path d="M127 0H133L115 16H109L127 0Z" fill="black"/>
<path d="M69.0001 0H75L57 16H51L69.0001 0Z" fill="black"/>
<path d="M49.0001 0H55L37 16H31L49.0001 0Z" fill="black"/>
<path d="M28.0001 0H34L16 16H10L28.0001 0Z" fill="black"/>
<path d="M88.0001 0H94L76 16H70L88.0001 0Z" fill="black"/>
<path d="M107 0H113L95 16H89L107 0Z" fill="black"/>
<path d="M8.50012 0H15.0001L0.00012207 12.9952V7.49725L8.50012 0Z" fill="#090909"/>
</svg>
