<svg width="60" height="63" viewBox="0 0 60 63" fill="none" xmlns="http://www.w3.org/2000/svg">
<circle cx="14" cy="24" r="5" fill="#18EFB1"/>
<circle cx="14" cy="42" r="4" fill="#18EFB1" fill-opacity="0.65"/>
<circle cx="14" cy="58" r="3" fill="#18EFB1" fill-opacity="0.35"/>
<path d="M36.19 21.41L34.22 22.7V21.88L36.2 20.51H37.06V27H36.19V21.41ZM41.6908 27.1C41.3974 27.1 41.1574 27.09 40.9708 27.07C40.7908 27.05 40.5974 27.01 40.3908 26.95C40.1708 26.89 39.9941 26.8033 39.8608 26.69C39.7341 26.57 39.6274 26.4033 39.5408 26.19C39.4541 25.99 39.4108 25.74 39.4108 25.44V22.16C39.4108 21.86 39.4541 21.5967 39.5408 21.37C39.6274 21.1433 39.7408 20.9633 39.8808 20.83C40.0074 20.7167 40.1741 20.6267 40.3808 20.56C40.5941 20.4867 40.8074 20.44 41.0208 20.42C41.2608 20.4067 41.4841 20.4 41.6908 20.4C41.9841 20.4 42.2208 20.41 42.4008 20.43C42.5874 20.45 42.7841 20.49 42.9908 20.55C43.2108 20.6167 43.3874 20.71 43.5208 20.83C43.6608 20.95 43.7741 21.12 43.8608 21.34C43.9474 21.56 43.9908 21.83 43.9908 22.15V25.44C43.9908 25.7133 43.9474 25.9567 43.8608 26.17C43.7741 26.3833 43.6608 26.55 43.5208 26.67C43.3874 26.7833 43.2174 26.8767 43.0108 26.95C42.8041 27.0167 42.5941 27.0567 42.3808 27.07C42.1941 27.09 41.9641 27.1 41.6908 27.1ZM41.7108 26.51C42.0641 26.51 42.3374 26.4867 42.5308 26.44C42.7241 26.3867 42.8641 26.2867 42.9508 26.14C43.0374 25.9933 43.0808 25.7767 43.0808 25.49V22.09C43.0808 21.7767 43.0341 21.5433 42.9408 21.39C42.8541 21.23 42.7141 21.1233 42.5208 21.07C42.3341 21.0167 42.0608 20.99 41.7008 20.99C41.3341 20.99 41.0541 21.0167 40.8608 21.07C40.6741 21.1233 40.5374 21.23 40.4508 21.39C40.3641 21.5433 40.3208 21.7767 40.3208 22.09V25.49C40.3208 25.7767 40.3641 25.9933 40.4508 26.14C40.5441 26.2867 40.6874 26.3867 40.8808 26.44C41.0741 26.4867 41.3508 26.51 41.7108 26.51ZM47.4916 27.1C47.1982 27.1 46.9582 27.09 46.7716 27.07C46.5916 27.05 46.3982 27.01 46.1916 26.95C45.9716 26.89 45.7949 26.8033 45.6616 26.69C45.5349 26.57 45.4282 26.4033 45.3416 26.19C45.2549 25.99 45.2116 25.74 45.2116 25.44V22.16C45.2116 21.86 45.2549 21.5967 45.3416 21.37C45.4282 21.1433 45.5416 20.9633 45.6816 20.83C45.8082 20.7167 45.9749 20.6267 46.1816 20.56C46.3949 20.4867 46.6082 20.44 46.8216 20.42C47.0616 20.4067 47.2849 20.4 47.4916 20.4C47.7849 20.4 48.0216 20.41 48.2016 20.43C48.3882 20.45 48.5849 20.49 48.7916 20.55C49.0116 20.6167 49.1882 20.71 49.3216 20.83C49.4616 20.95 49.5749 21.12 49.6616 21.34C49.7482 21.56 49.7916 21.83 49.7916 22.15V25.44C49.7916 25.7133 49.7482 25.9567 49.6616 26.17C49.5749 26.3833 49.4616 26.55 49.3216 26.67C49.1882 26.7833 49.0182 26.8767 48.8116 26.95C48.6049 27.0167 48.3949 27.0567 48.1816 27.07C47.9949 27.09 47.7649 27.1 47.4916 27.1ZM47.5116 26.51C47.8649 26.51 48.1382 26.4867 48.3316 26.44C48.5249 26.3867 48.6649 26.2867 48.7516 26.14C48.8382 25.9933 48.8816 25.7767 48.8816 25.49V22.09C48.8816 21.7767 48.8349 21.5433 48.7416 21.39C48.6549 21.23 48.5149 21.1233 48.3216 21.07C48.1349 21.0167 47.8616 20.99 47.5016 20.99C47.1349 20.99 46.8549 21.0167 46.6616 21.07C46.4749 21.1233 46.3382 21.23 46.2516 21.39C46.1649 21.5433 46.1216 21.7767 46.1216 22.09V25.49C46.1216 25.7767 46.1649 25.9933 46.2516 26.14C46.3449 26.2867 46.4882 26.3867 46.6816 26.44C46.8749 26.4867 47.1516 26.51 47.5116 26.51ZM55.9523 20.4H56.7223L53.4823 27.1H52.7123L55.9523 20.4ZM52.4423 23.87C52.1957 23.87 51.9923 23.86 51.8323 23.84C51.679 23.82 51.5223 23.78 51.3623 23.72C51.029 23.6 50.8623 23.32 50.8623 22.88V21.63C50.8623 21.21 50.9923 20.92 51.2523 20.76C51.519 20.5933 51.9157 20.51 52.4423 20.51C52.969 20.51 53.3623 20.5933 53.6223 20.76C53.8823 20.92 54.0123 21.21 54.0123 21.63V22.88C54.0123 23.32 53.849 23.6 53.5223 23.72C53.3623 23.78 53.2023 23.82 53.0423 23.84C52.889 23.86 52.689 23.87 52.4423 23.87ZM52.4423 23.35C52.7357 23.35 52.939 23.3167 53.0523 23.25C53.1723 23.1833 53.2323 23.0467 53.2323 22.84V21.59C53.2323 21.3633 53.1757 21.2133 53.0623 21.14C52.949 21.0667 52.7423 21.03 52.4423 21.03C52.1423 21.03 51.9323 21.0667 51.8123 21.14C51.699 21.2133 51.6423 21.3633 51.6423 21.59V22.84C51.6423 23.0467 51.7023 23.1833 51.8223 23.25C51.9423 23.3167 52.149 23.35 52.4423 23.35ZM56.9223 27.1C56.6757 27.1 56.4723 27.09 56.3123 27.07C56.159 27.05 56.0023 27.01 55.8423 26.95C55.509 26.83 55.3423 26.55 55.3423 26.11V24.86C55.3423 24.44 55.4723 24.15 55.7323 23.99C55.999 23.8233 56.3957 23.74 56.9223 23.74C57.449 23.74 57.8423 23.8233 58.1023 23.99C58.3623 24.15 58.4923 24.44 58.4923 24.86V26.11C58.4923 26.55 58.329 26.83 58.0023 26.95C57.8423 27.01 57.6823 27.05 57.5223 27.07C57.369 27.09 57.169 27.1 56.9223 27.1ZM56.9223 26.58C57.2157 26.58 57.419 26.5467 57.5323 26.48C57.6523 26.4133 57.7123 26.2767 57.7123 26.07V24.82C57.7123 24.5933 57.6557 24.4433 57.5423 24.37C57.429 24.2967 57.2223 24.26 56.9223 24.26C56.6223 24.26 56.4123 24.2967 56.2923 24.37C56.179 24.4433 56.1223 24.5933 56.1223 24.82V26.07C56.1223 26.2767 56.1823 26.4133 56.3023 26.48C56.4223 26.5467 56.629 26.58 56.9223 26.58Z" fill="#B8B8B8"/>
<path d="M41.89 44.1C41.5967 44.1 41.36 44.09 41.18 44.07C41 44.05 40.8133 44.01 40.62 43.95C40.4133 43.89 40.25 43.8033 40.13 43.69C40.01 43.57 39.91 43.4033 39.83 43.19C39.75 42.9767 39.71 42.7267 39.71 42.44V39.16C39.71 38.86 39.7567 38.5967 39.85 38.37C39.95 38.1433 40.0767 37.9633 40.23 37.83C40.3633 37.7167 40.5433 37.6267 40.77 37.56C40.9967 37.4867 41.2233 37.44 41.45 37.42C41.7033 37.4067 41.9333 37.4 42.14 37.4C42.5467 37.4 43.0933 37.43 43.78 37.49V38.17C43.0933 38.0833 42.5033 38.04 42.01 38.04C41.6367 38.04 41.3533 38.0667 41.16 38.12C40.9667 38.1733 40.8233 38.28 40.73 38.44C40.6433 38.5933 40.6 38.8267 40.6 39.14V40.16H42.07C42.4033 40.16 42.6533 40.1667 42.82 40.18C42.9867 40.1933 43.1633 40.22 43.35 40.26C43.5367 40.3 43.6733 40.3667 43.76 40.46C43.8533 40.5533 43.9333 40.6867 44 40.86C44.06 41.0267 44.09 41.2367 44.09 41.49V42.44C44.09 43.16 43.8633 43.6267 43.41 43.84C43.19 43.94 42.97 44.0067 42.75 44.04C42.53 44.08 42.2433 44.1 41.89 44.1ZM41.91 43.51C42.2633 43.51 42.5267 43.4867 42.7 43.44C42.88 43.3867 43.0067 43.29 43.08 43.15C43.16 43.0033 43.2 42.7833 43.2 42.49V41.52C43.2 41.3 43.1667 41.1367 43.1 41.03C43.0333 40.9167 42.91 40.84 42.73 40.8C42.55 40.76 42.2733 40.74 41.9 40.74H40.6V42.49C40.6 42.7833 40.64 43.0033 40.72 43.15C40.8 43.29 40.93 43.3867 41.11 43.44C41.29 43.4867 41.5567 43.51 41.91 43.51ZM47.5808 44.1C47.0408 44.1 46.4041 44.04 45.6708 43.92V43.2C46.4441 43.36 47.0908 43.44 47.6108 43.44C48.0174 43.44 48.3141 43.3833 48.5008 43.27C48.6941 43.15 48.7908 42.9567 48.7908 42.69V41.4C48.7908 41.12 48.6708 40.94 48.4308 40.86C48.3174 40.8267 48.2108 40.8067 48.1108 40.8C48.0174 40.7867 47.8941 40.78 47.7408 40.78H45.8208V37.51H49.5608V38.19H46.7208V40.16H48.2208C48.4874 40.16 48.7241 40.1933 48.9308 40.26C49.1374 40.32 49.3208 40.4267 49.4808 40.58C49.6474 40.7467 49.7308 40.9633 49.7308 41.23V42.71C49.7308 42.9433 49.6874 43.15 49.6008 43.33C49.5208 43.5033 49.4108 43.64 49.2708 43.74C49.1441 43.8333 48.9808 43.91 48.7808 43.97C48.5874 44.03 48.3941 44.0667 48.2008 44.08C47.9608 44.0933 47.7541 44.1 47.5808 44.1ZM56.1516 37.4H56.9216L53.6816 44.1H52.9116L56.1516 37.4ZM52.6416 40.87C52.3949 40.87 52.1916 40.86 52.0316 40.84C51.8782 40.82 51.7216 40.78 51.5616 40.72C51.2282 40.6 51.0616 40.32 51.0616 39.88V38.63C51.0616 38.21 51.1916 37.92 51.4516 37.76C51.7182 37.5933 52.1149 37.51 52.6416 37.51C53.1682 37.51 53.5616 37.5933 53.8216 37.76C54.0816 37.92 54.2116 38.21 54.2116 38.63V39.88C54.2116 40.32 54.0482 40.6 53.7216 40.72C53.5616 40.78 53.4016 40.82 53.2416 40.84C53.0882 40.86 52.8882 40.87 52.6416 40.87ZM52.6416 40.35C52.9349 40.35 53.1382 40.3167 53.2516 40.25C53.3716 40.1833 53.4316 40.0467 53.4316 39.84V38.59C53.4316 38.3633 53.3749 38.2133 53.2616 38.14C53.1482 38.0667 52.9416 38.03 52.6416 38.03C52.3416 38.03 52.1316 38.0667 52.0116 38.14C51.8982 38.2133 51.8416 38.3633 51.8416 38.59V39.84C51.8416 40.0467 51.9016 40.1833 52.0216 40.25C52.1416 40.3167 52.3482 40.35 52.6416 40.35ZM57.1216 44.1C56.8749 44.1 56.6716 44.09 56.5116 44.07C56.3582 44.05 56.2016 44.01 56.0416 43.95C55.7082 43.83 55.5416 43.55 55.5416 43.11V41.86C55.5416 41.44 55.6716 41.15 55.9316 40.99C56.1982 40.8233 56.5949 40.74 57.1216 40.74C57.6482 40.74 58.0416 40.8233 58.3016 40.99C58.5616 41.15 58.6916 41.44 58.6916 41.86V43.11C58.6916 43.55 58.5282 43.83 58.2016 43.95C58.0416 44.01 57.8816 44.05 57.7216 44.07C57.5682 44.09 57.3682 44.1 57.1216 44.1ZM57.1216 43.58C57.4149 43.58 57.6182 43.5467 57.7316 43.48C57.8516 43.4133 57.9116 43.2767 57.9116 43.07V41.82C57.9116 41.5933 57.8549 41.4433 57.7416 41.37C57.6282 41.2967 57.4216 41.26 57.1216 41.26C56.8216 41.26 56.6116 41.2967 56.4916 41.37C56.3782 41.4433 56.3216 41.5933 56.3216 41.82V43.07C56.3216 43.2767 56.3816 43.4133 56.5016 43.48C56.6216 43.5467 56.8282 43.58 57.1216 43.58Z" fill="#B8B8B8"/>
<path d="M41.66 61.1C41.1 61.1 40.47 61.0367 39.77 60.91V60.19C40.5633 60.3567 41.2267 60.44 41.76 60.44C42.6467 60.44 43.09 60.19 43.09 59.69V58.58C43.09 58.3067 42.9433 58.1267 42.65 58.04C42.51 58.0067 42.3833 57.9867 42.27 57.98C42.1633 57.9667 42.0233 57.96 41.85 57.96H40.6V57.34H41.68C41.8533 57.34 41.9933 57.3367 42.1 57.33C42.2067 57.3167 42.33 57.29 42.47 57.25C42.6167 57.2167 42.73 57.1533 42.81 57.06C42.89 56.9667 42.93 56.8467 42.93 56.7V55.54C42.93 55.2 42.53 55.03 41.73 55.03C41.1967 55.03 40.5867 55.0833 39.9 55.19V54.5C40.4733 54.44 41.08 54.41 41.72 54.41C42.46 54.41 42.9967 54.4933 43.33 54.66C43.67 54.82 43.84 55.0967 43.84 55.49V56.74C43.84 56.9467 43.7567 57.12 43.59 57.26C43.4233 57.3933 43.21 57.48 42.95 57.52V57.56C43.11 57.5867 43.24 57.6167 43.34 57.65C43.4467 57.6767 43.56 57.72 43.68 57.78C43.9133 57.9 44.03 58.11 44.03 58.41V59.71C44.03 59.9367 43.98 60.14 43.88 60.32C43.78 60.5 43.6533 60.64 43.5 60.74C43.3667 60.8333 43.19 60.91 42.97 60.97C42.75 61.0233 42.5333 61.06 42.32 61.08C42.0667 61.0933 41.8467 61.1 41.66 61.1ZM47.5808 61.1C47.0408 61.1 46.4041 61.04 45.6708 60.92V60.2C46.4441 60.36 47.0908 60.44 47.6108 60.44C48.0174 60.44 48.3141 60.3833 48.5008 60.27C48.6941 60.15 48.7908 59.9567 48.7908 59.69V58.4C48.7908 58.12 48.6708 57.94 48.4308 57.86C48.3174 57.8267 48.2108 57.8067 48.1108 57.8C48.0174 57.7867 47.8941 57.78 47.7408 57.78H45.8208V54.51H49.5608V55.19H46.7208V57.16H48.2208C48.4874 57.16 48.7241 57.1933 48.9308 57.26C49.1374 57.32 49.3208 57.4267 49.4808 57.58C49.6474 57.7467 49.7308 57.9633 49.7308 58.23V59.71C49.7308 59.9433 49.6874 60.15 49.6008 60.33C49.5208 60.5033 49.4108 60.64 49.2708 60.74C49.1441 60.8333 48.9808 60.91 48.7808 60.97C48.5874 61.03 48.3941 61.0667 48.2008 61.08C47.9608 61.0933 47.7541 61.1 47.5808 61.1ZM56.1516 54.4H56.9216L53.6816 61.1H52.9116L56.1516 54.4ZM52.6416 57.87C52.3949 57.87 52.1916 57.86 52.0316 57.84C51.8782 57.82 51.7216 57.78 51.5616 57.72C51.2282 57.6 51.0616 57.32 51.0616 56.88V55.63C51.0616 55.21 51.1916 54.92 51.4516 54.76C51.7182 54.5933 52.1149 54.51 52.6416 54.51C53.1682 54.51 53.5616 54.5933 53.8216 54.76C54.0816 54.92 54.2116 55.21 54.2116 55.63V56.88C54.2116 57.32 54.0482 57.6 53.7216 57.72C53.5616 57.78 53.4016 57.82 53.2416 57.84C53.0882 57.86 52.8882 57.87 52.6416 57.87ZM52.6416 57.35C52.9349 57.35 53.1382 57.3167 53.2516 57.25C53.3716 57.1833 53.4316 57.0467 53.4316 56.84V55.59C53.4316 55.3633 53.3749 55.2133 53.2616 55.14C53.1482 55.0667 52.9416 55.03 52.6416 55.03C52.3416 55.03 52.1316 55.0667 52.0116 55.14C51.8982 55.2133 51.8416 55.3633 51.8416 55.59V56.84C51.8416 57.0467 51.9016 57.1833 52.0216 57.25C52.1416 57.3167 52.3482 57.35 52.6416 57.35ZM57.1216 61.1C56.8749 61.1 56.6716 61.09 56.5116 61.07C56.3582 61.05 56.2016 61.01 56.0416 60.95C55.7082 60.83 55.5416 60.55 55.5416 60.11V58.86C55.5416 58.44 55.6716 58.15 55.9316 57.99C56.1982 57.8233 56.5949 57.74 57.1216 57.74C57.6482 57.74 58.0416 57.8233 58.3016 57.99C58.5616 58.15 58.6916 58.44 58.6916 58.86V60.11C58.6916 60.55 58.5282 60.83 58.2016 60.95C58.0416 61.01 57.8816 61.05 57.7216 61.07C57.5682 61.09 57.3682 61.1 57.1216 61.1ZM57.1216 60.58C57.4149 60.58 57.6182 60.5467 57.7316 60.48C57.8516 60.4133 57.9116 60.2767 57.9116 60.07V58.82C57.9116 58.5933 57.8549 58.4433 57.7416 58.37C57.6282 58.2967 57.4216 58.26 57.1216 58.26C56.8216 58.26 56.6116 58.2967 56.4916 58.37C56.3782 58.4433 56.3216 58.5933 56.3216 58.82V60.07C56.3216 60.2767 56.3816 60.4133 56.5016 60.48C56.6216 60.5467 56.8282 60.58 57.1216 60.58Z" fill="#B8B8B8"/>
<path d="M0.84 3.51H3.12C3.69333 3.51 4.14 3.54667 4.46 3.62C4.78667 3.68667 5.02333 3.81 5.17 3.99C5.32333 4.17 5.4 4.43333 5.4 4.78V5.9C5.4 6.28667 5.24 6.58667 4.92 6.8C4.60667 7.00667 4.20667 7.11 3.72 7.11L5.8 10H4.61L2.75 7.23H1.81V10H0.84V3.51ZM3.08 6.59C3.56 6.59 3.90333 6.53333 4.11 6.42C4.32333 6.3 4.43 6.08667 4.43 5.78V4.88C4.43 4.39333 4.01 4.15 3.17 4.15H1.81V6.59H3.08ZM9.13836 10.1C7.65836 10.1 6.91836 9.60667 6.91836 8.62V6.71C6.91836 6.12333 7.08503 5.70333 7.41836 5.45C7.75836 5.19 8.30503 5.06 9.05836 5.06C9.77169 5.06 10.285 5.18333 10.5984 5.43C10.9184 5.67667 11.0784 6.10333 11.0784 6.71V7.78H7.82836V8.51C7.82836 8.84333 7.94503 9.08333 8.17836 9.23C8.41169 9.37667 8.77169 9.45 9.25836 9.45C9.71836 9.45 10.2617 9.37 10.8884 9.21V9.9C10.275 10.0333 9.69169 10.1 9.13836 10.1ZM10.1784 7.19V6.43C10.1784 6.13667 10.0884 5.93667 9.90836 5.83C9.73503 5.71667 9.43503 5.66 9.00836 5.66C8.59503 5.66 8.29503 5.71667 8.10836 5.83C7.92169 5.93667 7.82836 6.13667 7.82836 6.43V7.19H10.1784ZM14.3999 10.1C14.0666 10.1 13.8233 10.0933 13.6699 10.08C13.5233 10.0667 13.3533 10.0333 13.1599 9.98C12.9533 9.92667 12.7933 9.84667 12.6799 9.74C12.5666 9.63333 12.4699 9.47667 12.3899 9.27C12.3099 9.07 12.2699 8.82 12.2699 8.52V6.74C12.2699 6.2 12.3733 5.81333 12.5799 5.58C12.6933 5.44667 12.8066 5.34667 12.9199 5.28C13.0399 5.20667 13.1933 5.15667 13.3799 5.13C13.5666 5.10333 13.7333 5.08667 13.8799 5.08C14.0266 5.06667 14.2333 5.06 14.4999 5.06C14.9599 5.06 15.4199 5.11 15.8799 5.21V5.87C15.3466 5.73667 14.8499 5.67 14.3899 5.67C14.0433 5.67 13.7866 5.69667 13.6199 5.75C13.4599 5.79667 13.3466 5.88667 13.2799 6.02C13.2199 6.14667 13.1899 6.34333 13.1899 6.61V8.59C13.1899 8.83667 13.2233 9.02 13.2899 9.14C13.3633 9.26 13.4899 9.34667 13.6699 9.4C13.8566 9.44667 14.1299 9.47 14.4899 9.47C14.9766 9.47 15.4633 9.40667 15.9499 9.28V9.96C15.4966 10.0533 14.9799 10.1 14.3999 10.1ZM19.1286 10.1C17.6486 10.1 16.9086 9.60667 16.9086 8.62V6.71C16.9086 6.12333 17.0753 5.70333 17.4086 5.45C17.7486 5.19 18.2953 5.06 19.0486 5.06C19.7619 5.06 20.2753 5.18333 20.5886 5.43C20.9086 5.67667 21.0686 6.10333 21.0686 6.71V7.78H17.8186V8.51C17.8186 8.84333 17.9353 9.08333 18.1686 9.23C18.4019 9.37667 18.7619 9.45 19.2486 9.45C19.7086 9.45 20.2519 9.37 20.8786 9.21V9.9C20.2653 10.0333 19.6819 10.1 19.1286 10.1ZM20.1686 7.19V6.43C20.1686 6.13667 20.0786 5.93667 19.8986 5.83C19.7253 5.71667 19.4253 5.66 18.9986 5.66C18.5853 5.66 18.2853 5.71667 18.0986 5.83C17.9119 5.93667 17.8186 6.13667 17.8186 6.43V7.19H20.1686ZM22.4402 3.41H23.3402V4.35H22.4402V3.41ZM22.4402 5.16H23.3402V10H22.4402V5.16ZM24.1811 5.16H25.1311L26.4711 9.22H26.5211L27.8211 5.16H28.6911L27.0011 10H25.9211L24.1811 5.16ZM31.57 10.1C30.09 10.1 29.35 9.60667 29.35 8.62V6.71C29.35 6.12333 29.5167 5.70333 29.85 5.45C30.19 5.19 30.7367 5.06 31.49 5.06C32.2033 5.06 32.7167 5.18333 33.03 5.43C33.35 5.67667 33.51 6.10333 33.51 6.71V7.78H30.26V8.51C30.26 8.84333 30.3767 9.08333 30.61 9.23C30.8433 9.37667 31.2033 9.45 31.69 9.45C32.15 9.45 32.6933 9.37 33.32 9.21V9.9C32.7067 10.0333 32.1233 10.1 31.57 10.1ZM32.61 7.19V6.43C32.61 6.13667 32.52 5.93667 32.34 5.83C32.1667 5.71667 31.8667 5.66 31.44 5.66C31.0267 5.66 30.7267 5.71667 30.54 5.83C30.3533 5.93667 30.26 6.13667 30.26 6.43V7.19H32.61ZM36.6116 10.1C36.1316 10.1 35.7549 10.0533 35.4816 9.96C35.2082 9.86 35.0082 9.7 34.8816 9.48C34.7616 9.26 34.7016 8.95333 34.7016 8.56V6.43C34.7016 5.94333 34.8516 5.59333 35.1516 5.38C35.4582 5.16667 35.9616 5.06 36.6616 5.06C37.0816 5.06 37.4416 5.11333 37.7416 5.22C38.0482 5.32667 38.2049 5.48 38.2116 5.68H38.2316L38.2116 4.45V3H39.1116V10H38.2316V9.43C38.2316 9.61 38.0882 9.76333 37.8016 9.89C37.5149 10.03 37.1182 10.1 36.6116 10.1ZM36.8016 9.48C37.3016 9.48 37.6616 9.42333 37.8816 9.31C38.1016 9.19667 38.2116 9.00333 38.2116 8.73V6.34C38.2116 5.90667 37.7682 5.69 36.8816 5.69C36.3482 5.69 36.0016 5.73 35.8416 5.81C35.6749 5.89 35.5916 6.06667 35.5916 6.34V8.73C35.5916 9.00333 35.6816 9.19667 35.8616 9.31C36.0482 9.42333 36.3616 9.48 36.8016 9.48ZM44.5591 4.19H42.3591V3.51H47.7291V4.19H45.5391V10H44.5591V4.19ZM50.4388 6.69L48.1488 3.51H49.2588L50.9888 6.02L52.7188 3.51H53.8288L51.5388 6.69L53.9288 10H52.8188L50.9888 7.36L49.1588 10H48.0488L50.4388 6.69ZM56.2639 10.1C55.7506 10.1 55.1972 10.06 54.6039 9.98V9.29C55.3839 9.41667 55.9439 9.48 56.2839 9.48C56.7106 9.48 57.0172 9.44 57.2039 9.36C57.3906 9.27333 57.4839 9.11667 57.4839 8.89V8.4C57.4839 8.19333 57.4139 8.04667 57.2739 7.96C57.1339 7.87333 56.9072 7.83 56.5939 7.83H56.0439C55.5439 7.83 55.1606 7.72667 54.8939 7.52C54.6339 7.31333 54.5039 7.02333 54.5039 6.65V6.2C54.5039 5.44 55.2239 5.06 56.6639 5.06C56.7706 5.06 57.2606 5.08667 58.1339 5.14V5.79C57.5406 5.69667 57.0372 5.65 56.6239 5.65C56.1506 5.65 55.8272 5.69667 55.6539 5.79C55.4806 5.88333 55.3939 6.04 55.3939 6.26V6.67C55.3939 6.99667 55.6906 7.16 56.2839 7.16H56.8439C57.8639 7.16 58.3739 7.54 58.3739 8.3V8.72C58.3739 9.22 58.2006 9.57667 57.8539 9.79C57.5072 9.99667 56.9772 10.1 56.2639 10.1Z" fill="#B8B8B8"/>
</svg>
