<svg width="48" height="60" viewBox="0 0 48 60" fill="none" xmlns="http://www.w3.org/2000/svg">
<circle cx="10" cy="22" r="5" fill="#18EFB1"/>
<circle cx="10" cy="39" r="3" fill="#18EFB1" fill-opacity="0.75"/>
<circle cx="10" cy="56" r="2" fill="#18EFB1" fill-opacity="0.4"/>
<path d="M28.552 19.528L26.976 20.56V19.904L28.56 18.808H29.248V24H28.552V19.528ZM32.9526 24.08C32.718 24.08 32.526 24.072 32.3766 24.056C32.2326 24.04 32.078 24.008 31.9126 23.96C31.7366 23.912 31.5953 23.8427 31.4886 23.752C31.3873 23.656 31.302 23.5227 31.2326 23.352C31.1633 23.192 31.1286 22.992 31.1286 22.752V20.128C31.1286 19.888 31.1633 19.6773 31.2326 19.496C31.302 19.3147 31.3926 19.1707 31.5046 19.064C31.606 18.9733 31.7393 18.9013 31.9046 18.848C32.0753 18.7893 32.246 18.752 32.4166 18.736C32.6086 18.7253 32.7873 18.72 32.9526 18.72C33.1873 18.72 33.3766 18.728 33.5206 18.744C33.67 18.76 33.8273 18.792 33.9926 18.84C34.1686 18.8933 34.31 18.968 34.4166 19.064C34.5286 19.16 34.6193 19.296 34.6886 19.472C34.758 19.648 34.7926 19.864 34.7926 20.12V22.752C34.7926 22.9707 34.758 23.1653 34.6886 23.336C34.6193 23.5067 34.5286 23.64 34.4166 23.736C34.31 23.8267 34.174 23.9013 34.0086 23.96C33.8433 24.0133 33.6753 24.0453 33.5046 24.056C33.3553 24.072 33.1713 24.08 32.9526 24.08ZM32.9686 23.608C33.2513 23.608 33.47 23.5893 33.6246 23.552C33.7793 23.5093 33.8913 23.4293 33.9606 23.312C34.03 23.1947 34.0646 23.0213 34.0646 22.792V20.072C34.0646 19.8213 34.0273 19.6347 33.9526 19.512C33.8833 19.384 33.7713 19.2987 33.6166 19.256C33.4673 19.2133 33.2486 19.192 32.9606 19.192C32.6673 19.192 32.4433 19.2133 32.2886 19.256C32.1393 19.2987 32.03 19.384 31.9606 19.512C31.8913 19.6347 31.8566 19.8213 31.8566 20.072V22.792C31.8566 23.0213 31.8913 23.1947 31.9606 23.312C32.0353 23.4293 32.15 23.5093 32.3046 23.552C32.4593 23.5893 32.6806 23.608 32.9686 23.608ZM37.5933 24.08C37.3586 24.08 37.1666 24.072 37.0173 24.056C36.8733 24.04 36.7186 24.008 36.5533 23.96C36.3773 23.912 36.2359 23.8427 36.1293 23.752C36.0279 23.656 35.9426 23.5227 35.8733 23.352C35.8039 23.192 35.7693 22.992 35.7693 22.752V20.128C35.7693 19.888 35.8039 19.6773 35.8733 19.496C35.9426 19.3147 36.0333 19.1707 36.1453 19.064C36.2466 18.9733 36.3799 18.9013 36.5453 18.848C36.7159 18.7893 36.8866 18.752 37.0573 18.736C37.2493 18.7253 37.4279 18.72 37.5933 18.72C37.8279 18.72 38.0173 18.728 38.1613 18.744C38.3106 18.76 38.4679 18.792 38.6333 18.84C38.8093 18.8933 38.9506 18.968 39.0573 19.064C39.1693 19.16 39.2599 19.296 39.3293 19.472C39.3986 19.648 39.4333 19.864 39.4333 20.12V22.752C39.4333 22.9707 39.3986 23.1653 39.3293 23.336C39.2599 23.5067 39.1693 23.64 39.0573 23.736C38.9506 23.8267 38.8146 23.9013 38.6493 23.96C38.4839 24.0133 38.3159 24.0453 38.1453 24.056C37.9959 24.072 37.8119 24.08 37.5933 24.08ZM37.6093 23.608C37.8919 23.608 38.1106 23.5893 38.2653 23.552C38.4199 23.5093 38.5319 23.4293 38.6013 23.312C38.6706 23.1947 38.7053 23.0213 38.7053 22.792V20.072C38.7053 19.8213 38.6679 19.6347 38.5933 19.512C38.5239 19.384 38.4119 19.2987 38.2573 19.256C38.1079 19.2133 37.8893 19.192 37.6013 19.192C37.3079 19.192 37.0839 19.2133 36.9293 19.256C36.7799 19.2987 36.6706 19.384 36.6013 19.512C36.5319 19.6347 36.4973 19.8213 36.4973 20.072V22.792C36.4973 23.0213 36.5319 23.1947 36.6013 23.312C36.6759 23.4293 36.7906 23.5093 36.9453 23.552C37.0999 23.5893 37.3213 23.608 37.6093 23.608ZM44.3619 18.72H44.9779L42.3859 24.08H41.7699L44.3619 18.72ZM41.5539 21.496C41.3565 21.496 41.1939 21.488 41.0659 21.472C40.9432 21.456 40.8179 21.424 40.6899 21.376C40.4232 21.28 40.2899 21.056 40.2899 20.704V19.704C40.2899 19.368 40.3939 19.136 40.6019 19.008C40.8152 18.8747 41.1325 18.808 41.5539 18.808C41.9752 18.808 42.2899 18.8747 42.4979 19.008C42.7059 19.136 42.8099 19.368 42.8099 19.704V20.704C42.8099 21.056 42.6792 21.28 42.4179 21.376C42.2899 21.424 42.1619 21.456 42.0339 21.472C41.9112 21.488 41.7512 21.496 41.5539 21.496ZM41.5539 21.08C41.7885 21.08 41.9512 21.0533 42.0419 21C42.1379 20.9467 42.1859 20.8373 42.1859 20.672V19.672C42.1859 19.4907 42.1405 19.3707 42.0499 19.312C41.9592 19.2533 41.7939 19.224 41.5539 19.224C41.3139 19.224 41.1459 19.2533 41.0499 19.312C40.9592 19.3707 40.9139 19.4907 40.9139 19.672V20.672C40.9139 20.8373 40.9619 20.9467 41.0579 21C41.1539 21.0533 41.3192 21.08 41.5539 21.08ZM45.1379 24.08C44.9405 24.08 44.7779 24.072 44.6499 24.056C44.5272 24.04 44.4019 24.008 44.2739 23.96C44.0072 23.864 43.8739 23.64 43.8739 23.288V22.288C43.8739 21.952 43.9779 21.72 44.1859 21.592C44.3992 21.4587 44.7165 21.392 45.1379 21.392C45.5592 21.392 45.8739 21.4587 46.0819 21.592C46.2899 21.72 46.3939 21.952 46.3939 22.288V23.288C46.3939 23.64 46.2632 23.864 46.0019 23.96C45.8739 24.008 45.7459 24.04 45.6179 24.056C45.4952 24.072 45.3352 24.08 45.1379 24.08ZM45.1379 23.664C45.3725 23.664 45.5352 23.6373 45.6259 23.584C45.7219 23.5307 45.7699 23.4213 45.7699 23.256V22.256C45.7699 22.0747 45.7245 21.9547 45.6339 21.896C45.5432 21.8373 45.3779 21.808 45.1379 21.808C44.8979 21.808 44.7299 21.8373 44.6339 21.896C44.5432 21.9547 44.4979 22.0747 44.4979 22.256V23.256C44.4979 23.4213 44.5459 23.5307 44.6419 23.584C44.7379 23.6373 44.9032 23.664 45.1379 23.664Z" fill="#B8B8B8"/>
<path d="M33.472 36.328H30.496V35.808H34.144V36.328L32.16 41H31.392L33.472 36.328ZM36.8646 41.08C36.4326 41.08 35.9233 41.032 35.3366 40.936V40.36C35.9553 40.488 36.4726 40.552 36.8886 40.552C37.214 40.552 37.4513 40.5067 37.6006 40.416C37.7553 40.32 37.8326 40.1653 37.8326 39.952V38.92C37.8326 38.696 37.7366 38.552 37.5446 38.488C37.454 38.4613 37.3686 38.4453 37.2886 38.44C37.214 38.4293 37.1153 38.424 36.9926 38.424H35.4566V35.808H38.4486V36.352H36.1766V37.928H37.3766C37.59 37.928 37.7793 37.9547 37.9446 38.008C38.11 38.056 38.2566 38.1413 38.3846 38.264C38.518 38.3973 38.5846 38.5707 38.5846 38.784V39.968C38.5846 40.1547 38.55 40.32 38.4806 40.464C38.4166 40.6027 38.3286 40.712 38.2166 40.792C38.1153 40.8667 37.9846 40.928 37.8246 40.976C37.67 41.024 37.5153 41.0533 37.3606 41.064C37.1686 41.0747 37.0033 41.08 36.8646 41.08ZM43.7213 35.72H44.3373L41.7453 41.08H41.1293L43.7213 35.72ZM40.9133 38.496C40.7159 38.496 40.5533 38.488 40.4253 38.472C40.3026 38.456 40.1773 38.424 40.0493 38.376C39.7826 38.28 39.6493 38.056 39.6493 37.704V36.704C39.6493 36.368 39.7533 36.136 39.9613 36.008C40.1746 35.8747 40.4919 35.808 40.9133 35.808C41.3346 35.808 41.6493 35.8747 41.8573 36.008C42.0653 36.136 42.1693 36.368 42.1693 36.704V37.704C42.1693 38.056 42.0386 38.28 41.7773 38.376C41.6493 38.424 41.5213 38.456 41.3932 38.472C41.2706 38.488 41.1106 38.496 40.9133 38.496ZM40.9133 38.08C41.1479 38.08 41.3106 38.0533 41.4013 38C41.4973 37.9467 41.5453 37.8373 41.5453 37.672V36.672C41.5453 36.4907 41.4999 36.3707 41.4093 36.312C41.3186 36.2533 41.1533 36.224 40.9133 36.224C40.6733 36.224 40.5053 36.2533 40.4093 36.312C40.3186 36.3707 40.2733 36.4907 40.2733 36.672V37.672C40.2733 37.8373 40.3213 37.9467 40.4173 38C40.5133 38.0533 40.6786 38.08 40.9133 38.08ZM44.4973 41.08C44.2999 41.08 44.1373 41.072 44.0093 41.056C43.8866 41.04 43.7613 41.008 43.6333 40.96C43.3666 40.864 43.2333 40.64 43.2333 40.288V39.288C43.2333 38.952 43.3373 38.72 43.5453 38.592C43.7586 38.4587 44.0759 38.392 44.4973 38.392C44.9186 38.392 45.2333 38.4587 45.4413 38.592C45.6493 38.72 45.7533 38.952 45.7533 39.288V40.288C45.7533 40.64 45.6226 40.864 45.3613 40.96C45.2333 41.008 45.1053 41.04 44.9773 41.056C44.8546 41.072 44.6946 41.08 44.4973 41.08ZM44.4973 40.664C44.7319 40.664 44.8946 40.6373 44.9853 40.584C45.0813 40.5307 45.1293 40.4213 45.1293 40.256V39.256C45.1293 39.0747 45.0839 38.9547 44.9933 38.896C44.9026 38.8373 44.7373 38.808 44.4973 38.808C44.2573 38.808 44.0893 38.8373 43.9933 38.896C43.9026 38.9547 43.8573 39.0747 43.8573 39.256V40.256C43.8573 40.4213 43.9053 40.5307 44.0013 40.584C44.0973 40.6373 44.2626 40.664 44.4973 40.664Z" fill="#B8B8B8"/>
<path d="M33 56.864H30.416V56.232L32.768 52.808H33.664V56.312H34.224V56.864H33.664V58H33V56.864ZM33 56.312V53.44L31.056 56.312H33ZM36.9526 58.08C36.718 58.08 36.526 58.072 36.3766 58.056C36.2326 58.04 36.078 58.008 35.9126 57.96C35.7366 57.912 35.5953 57.8427 35.4886 57.752C35.3873 57.656 35.302 57.5227 35.2326 57.352C35.1633 57.192 35.1286 56.992 35.1286 56.752V54.128C35.1286 53.888 35.1633 53.6773 35.2326 53.496C35.302 53.3147 35.3926 53.1707 35.5046 53.064C35.606 52.9733 35.7393 52.9013 35.9046 52.848C36.0753 52.7893 36.246 52.752 36.4166 52.736C36.6086 52.7253 36.7873 52.72 36.9526 52.72C37.1873 52.72 37.3766 52.728 37.5206 52.744C37.67 52.76 37.8273 52.792 37.9926 52.84C38.1686 52.8933 38.31 52.968 38.4166 53.064C38.5286 53.16 38.6193 53.296 38.6886 53.472C38.758 53.648 38.7926 53.864 38.7926 54.12V56.752C38.7926 56.9707 38.758 57.1653 38.6886 57.336C38.6193 57.5067 38.5286 57.64 38.4166 57.736C38.31 57.8267 38.174 57.9013 38.0086 57.96C37.8433 58.0133 37.6753 58.0453 37.5046 58.056C37.3553 58.072 37.1713 58.08 36.9526 58.08ZM36.9686 57.608C37.2513 57.608 37.47 57.5893 37.6246 57.552C37.7793 57.5093 37.8913 57.4293 37.9606 57.312C38.03 57.1947 38.0646 57.0213 38.0646 56.792V54.072C38.0646 53.8213 38.0273 53.6347 37.9526 53.512C37.8833 53.384 37.7713 53.2987 37.6166 53.256C37.4673 53.2133 37.2486 53.192 36.9606 53.192C36.6673 53.192 36.4433 53.2133 36.2886 53.256C36.1393 53.2987 36.03 53.384 35.9606 53.512C35.8913 53.6347 35.8566 53.8213 35.8566 54.072V56.792C35.8566 57.0213 35.8913 57.1947 35.9606 57.312C36.0353 57.4293 36.15 57.5093 36.3046 57.552C36.4593 57.5893 36.6806 57.608 36.9686 57.608ZM43.7213 52.72H44.3373L41.7453 58.08H41.1293L43.7213 52.72ZM40.9133 55.496C40.7159 55.496 40.5533 55.488 40.4253 55.472C40.3026 55.456 40.1773 55.424 40.0493 55.376C39.7826 55.28 39.6493 55.056 39.6493 54.704V53.704C39.6493 53.368 39.7533 53.136 39.9613 53.008C40.1746 52.8747 40.4919 52.808 40.9133 52.808C41.3346 52.808 41.6493 52.8747 41.8573 53.008C42.0653 53.136 42.1693 53.368 42.1693 53.704V54.704C42.1693 55.056 42.0386 55.28 41.7773 55.376C41.6493 55.424 41.5213 55.456 41.3932 55.472C41.2706 55.488 41.1106 55.496 40.9133 55.496ZM40.9133 55.08C41.1479 55.08 41.3106 55.0533 41.4013 55C41.4973 54.9467 41.5453 54.8373 41.5453 54.672V53.672C41.5453 53.4907 41.4999 53.3707 41.4093 53.312C41.3186 53.2533 41.1533 53.224 40.9133 53.224C40.6733 53.224 40.5053 53.2533 40.4093 53.312C40.3186 53.3707 40.2733 53.4907 40.2733 53.672V54.672C40.2733 54.8373 40.3213 54.9467 40.4173 55C40.5133 55.0533 40.6786 55.08 40.9133 55.08ZM44.4973 58.08C44.2999 58.08 44.1373 58.072 44.0093 58.056C43.8866 58.04 43.7613 58.008 43.6333 57.96C43.3666 57.864 43.2333 57.64 43.2333 57.288V56.288C43.2333 55.952 43.3373 55.72 43.5453 55.592C43.7586 55.4587 44.0759 55.392 44.4973 55.392C44.9186 55.392 45.2333 55.4587 45.4413 55.592C45.6493 55.72 45.7533 55.952 45.7533 56.288V57.288C45.7533 57.64 45.6226 57.864 45.3613 57.96C45.2333 58.008 45.1053 58.04 44.9773 58.056C44.8546 58.072 44.6946 58.08 44.4973 58.08ZM44.4973 57.664C44.7319 57.664 44.8946 57.6373 44.9853 57.584C45.0813 57.5307 45.1293 57.4213 45.1293 57.256V56.256C45.1293 56.0747 45.0839 55.9547 44.9933 55.896C44.9026 55.8373 44.7373 55.808 44.4973 55.808C44.2573 55.808 44.0893 55.8373 43.9933 55.896C43.9026 55.9547 43.8573 56.0747 43.8573 56.256V57.256C43.8573 57.4213 43.9053 57.5307 44.0013 57.584C44.0973 57.6373 44.2626 57.664 44.4973 57.664Z" fill="#B8B8B8"/>
<path d="M0.672 1.808H2.496C2.95467 1.808 3.312 1.83733 3.568 1.896C3.82933 1.94933 4.01867 2.048 4.136 2.192C4.25867 2.336 4.32 2.54667 4.32 2.824V3.72C4.32 4.02933 4.192 4.26933 3.936 4.44C3.68533 4.60533 3.36533 4.688 2.976 4.688L4.64 7H3.688L2.2 4.784H1.448V7H0.672V1.808ZM2.464 4.272C2.848 4.272 3.12267 4.22667 3.288 4.136C3.45867 4.04 3.544 3.86933 3.544 3.624V2.904C3.544 2.51467 3.208 2.32 2.536 2.32H1.448V4.272H2.464ZM7.31069 7.08C6.12669 7.08 5.53469 6.68533 5.53469 5.896V4.368C5.53469 3.89867 5.66802 3.56267 5.93469 3.36C6.20669 3.152 6.64402 3.048 7.24669 3.048C7.81735 3.048 8.22802 3.14667 8.47869 3.344C8.73469 3.54133 8.86269 3.88267 8.86269 4.368V5.224H6.26269V5.808C6.26269 6.07467 6.35602 6.26667 6.54269 6.384C6.72935 6.50133 7.01735 6.56 7.40669 6.56C7.77469 6.56 8.20935 6.496 8.71069 6.368V6.92C8.22002 7.02667 7.75335 7.08 7.31069 7.08ZM8.14269 4.752V4.144C8.14269 3.90933 8.07069 3.74933 7.92669 3.664C7.78802 3.57333 7.54802 3.528 7.20669 3.528C6.87602 3.528 6.63602 3.57333 6.48669 3.664C6.33735 3.74933 6.26269 3.90933 6.26269 4.144V4.752H8.14269ZM11.5199 7.08C11.2533 7.08 11.0586 7.07467 10.9359 7.064C10.8186 7.05333 10.6826 7.02667 10.5279 6.984C10.3626 6.94133 10.2346 6.87733 10.1439 6.792C10.0533 6.70667 9.97594 6.58133 9.91194 6.416C9.84794 6.256 9.81594 6.056 9.81594 5.816V4.392C9.81594 3.96 9.8986 3.65067 10.0639 3.464C10.1546 3.35733 10.2453 3.27733 10.3359 3.224C10.4319 3.16533 10.5546 3.12533 10.7039 3.104C10.8533 3.08267 10.9866 3.06933 11.1039 3.064C11.2213 3.05333 11.3866 3.048 11.5999 3.048C11.9679 3.048 12.3359 3.088 12.7039 3.168V3.696C12.2773 3.58933 11.8799 3.536 11.5119 3.536C11.2346 3.536 11.0293 3.55733 10.8959 3.6C10.7679 3.63733 10.6773 3.70933 10.6239 3.816C10.5759 3.91733 10.5519 4.07467 10.5519 4.288V5.872C10.5519 6.06933 10.5786 6.216 10.6319 6.312C10.6906 6.408 10.7919 6.47733 10.9359 6.52C11.0853 6.55733 11.3039 6.576 11.5919 6.576C11.9813 6.576 12.3706 6.52533 12.7599 6.424V6.968C12.3973 7.04267 11.9839 7.08 11.5199 7.08ZM15.3029 7.08C14.1189 7.08 13.5269 6.68533 13.5269 5.896V4.368C13.5269 3.89867 13.6602 3.56267 13.9269 3.36C14.1989 3.152 14.6362 3.048 15.2389 3.048C15.8095 3.048 16.2202 3.14667 16.4709 3.344C16.7269 3.54133 16.8549 3.88267 16.8549 4.368V5.224H14.2549V5.808C14.2549 6.07467 14.3482 6.26667 14.5349 6.384C14.7215 6.50133 15.0095 6.56 15.3989 6.56C15.7669 6.56 16.2015 6.496 16.7029 6.368V6.92C16.2122 7.02667 15.7455 7.08 15.3029 7.08ZM16.1349 4.752V4.144C16.1349 3.90933 16.0629 3.74933 15.9189 3.664C15.7802 3.57333 15.5402 3.528 15.1989 3.528C14.8682 3.528 14.6282 3.57333 14.4789 3.664C14.3295 3.74933 14.2549 3.90933 14.2549 4.144V4.752H16.1349ZM17.9521 1.728H18.6721V2.48H17.9521V1.728ZM17.9521 3.128H18.6721V7H17.9521V3.128ZM19.3449 3.128H20.1049L21.1769 6.376H21.2169L22.2569 3.128H22.9529L21.6009 7H20.7369L19.3449 3.128ZM25.256 7.08C24.072 7.08 23.48 6.68533 23.48 5.896V4.368C23.48 3.89867 23.6133 3.56267 23.88 3.36C24.152 3.152 24.5893 3.048 25.192 3.048C25.7627 3.048 26.1733 3.14667 26.424 3.344C26.68 3.54133 26.808 3.88267 26.808 4.368V5.224H24.208V5.808C24.208 6.07467 24.3013 6.26667 24.488 6.384C24.6747 6.50133 24.9627 6.56 25.352 6.56C25.72 6.56 26.1547 6.496 26.656 6.368V6.92C26.1653 7.02667 25.6987 7.08 25.256 7.08ZM26.088 4.752V4.144C26.088 3.90933 26.016 3.74933 25.872 3.664C25.7333 3.57333 25.4933 3.528 25.152 3.528C24.8213 3.528 24.5813 3.57333 24.432 3.664C24.2827 3.74933 24.208 3.90933 24.208 4.144V4.752H26.088ZM29.2893 7.08C28.9053 7.08 28.6039 7.04267 28.3853 6.968C28.1666 6.888 28.0066 6.76 27.9053 6.584C27.8093 6.408 27.7613 6.16267 27.7613 5.848V4.144C27.7613 3.75467 27.8813 3.47467 28.1213 3.304C28.3666 3.13333 28.7693 3.048 29.3293 3.048C29.6653 3.048 29.9533 3.09067 30.1933 3.176C30.4386 3.26133 30.5639 3.384 30.5693 3.544H30.5853L30.5693 2.56V1.4H31.2893V7H30.5853V6.544C30.5853 6.688 30.4706 6.81067 30.2413 6.912C30.0119 7.024 29.6946 7.08 29.2893 7.08ZM29.4413 6.584C29.8413 6.584 30.1293 6.53867 30.3053 6.448C30.4813 6.35733 30.5693 6.20267 30.5693 5.984V4.072C30.5693 3.72533 30.2146 3.552 29.5053 3.552C29.0786 3.552 28.8013 3.584 28.6733 3.648C28.5399 3.712 28.4733 3.85333 28.4733 4.072V5.984C28.4733 6.20267 28.5453 6.35733 28.6893 6.448C28.8386 6.53867 29.0893 6.584 29.4413 6.584ZM35.6473 2.352H33.8873V1.808H38.1833V2.352H36.4313V7H35.6473V2.352ZM40.351 4.352L38.519 1.808H39.407L40.791 3.816L42.175 1.808H43.063L41.231 4.352L43.143 7H42.255L40.791 4.888L39.327 7H38.439L40.351 4.352ZM45.0111 7.08C44.6005 7.08 44.1578 7.048 43.6831 6.984V6.432C44.3071 6.53333 44.7551 6.584 45.0271 6.584C45.3685 6.584 45.6138 6.552 45.7631 6.488C45.9125 6.41867 45.9871 6.29333 45.9871 6.112V5.72C45.9871 5.55467 45.9311 5.43733 45.8191 5.368C45.7071 5.29867 45.5258 5.264 45.2751 5.264H44.8351C44.4351 5.264 44.1285 5.18133 43.9151 5.016C43.7071 4.85067 43.6031 4.61867 43.6031 4.32V3.96C43.6031 3.352 44.1791 3.048 45.3311 3.048C45.4165 3.048 45.8085 3.06933 46.5071 3.112V3.632C46.0325 3.55733 45.6298 3.52 45.2991 3.52C44.9205 3.52 44.6618 3.55733 44.5231 3.632C44.3845 3.70667 44.3151 3.832 44.3151 4.008V4.336C44.3151 4.59733 44.5525 4.728 45.0271 4.728H45.4751C46.2911 4.728 46.6991 5.032 46.6991 5.64V5.976C46.6991 6.376 46.5605 6.66133 46.2831 6.832C46.0058 6.99733 45.5818 7.08 45.0111 7.08Z" fill="#B8B8B8"/>
</svg>
